<svg width="144" height="23" viewBox="0 0 144 23" fill="none" xmlns="http://www.w3.org/2000/svg">
<g clip-path="url(#clip0_1071_460)">
<path fill-rule="evenodd" clip-rule="evenodd" d="M24.572 22.9197C22.109 23.1999 19.6193 22.7031 17.4599 21.5004C18.5826 21.7612 20.1676 22.0972 20.1371 21.7863C19.8729 20.8484 16.6725 19.6999 14.9351 19.5996C14.6666 19.3354 14.4122 19.0575 14.1731 18.7671C17.785 19.2686 21.905 20.4322 24.5618 22.9197M29.8959 20.9136C28.491 21.8811 26.886 22.5286 25.1969 22.8094C25.0386 22.1735 24.6408 21.6211 24.0843 21.2647L24.6787 21.0641C23.1547 19.7351 20.0609 16.9817 12.5678 15.778H12.3747L12.0699 14.9405H12.2325C21.1988 15.4771 24.4247 17.6337 29.9061 20.9588M33.3352 17.3127C32.5688 18.5984 31.558 19.7258 30.3582 20.6328C29.8981 19.8095 29.2295 19.1183 28.4176 18.6267L28.824 18.2305C25.1867 15.1461 18.9839 12.2122 11.5518 11.9413C11.5518 11.6605 11.5518 11.3846 11.5518 11.1038C21.1226 11.2793 27.6048 13.5362 33.325 17.2876M34.8846 12.4078C34.7525 14.0545 34.2585 15.653 33.4368 17.092V17.1171C33.4368 17.1171 33.4368 17.0669 33.4368 17.0569C32.9565 16.0249 32.1314 15.1874 31.0999 14.6847L31.3895 13.8521C28.7174 11.3194 21.9253 7.72851 12.0852 8.09462L12.3849 7.26209C22.4282 6.94613 29.3473 8.91211 34.9151 12.4078M33.899 6.71543C34.5996 8.2156 34.9619 9.84806 34.9608 11.5C34.9608 11.7508 34.9608 12.0015 34.9354 12.2473C34.6966 11.2141 33.3809 9.81988 31.8873 9.3334L31.7908 8.65633C29.2965 6.73047 22.5044 3.51067 14.1629 4.25795C14.402 3.96751 14.6564 3.68962 14.9249 3.42541C22.8905 2.5979 30.6173 4.31813 33.8686 6.71543M23.241 -1.13337e-05C25.3699 0.00137164 27.4582 0.575465 29.2815 1.66057C31.1047 2.74568 32.5939 4.30077 33.5892 6.15873C32.5698 4.84793 31.1415 3.90499 29.5251 3.47557C27.9401 1.55974 21.6713 0.225676 17.4701 1.50457C19.226 0.510182 21.2167 -0.00883825 23.241 -1.13337e-05Z" fill="white"/>
<path fill-rule="evenodd" clip-rule="evenodd" d="M14.9456 19.5997C15.7038 20.3409 16.5579 20.98 17.4856 21.5004C15.2519 22.7512 12.6637 23.2427 10.1193 22.8993C7.57493 22.5558 5.21535 21.3965 3.40365 19.5997H14.9456ZM12.3751 15.768C12.8185 16.8565 13.4284 17.8713 14.1836 18.7772H2.63656C1.88321 17.8701 1.27345 16.8555 0.828053 15.768H12.3751ZM11.547 11.9313C11.5768 12.9525 11.7477 13.9649 12.055 14.9405H0.508008C0.200744 13.9649 0.0298296 12.9525 0 11.9313H11.547ZM12.055 8.09465C11.7501 9.07076 11.5793 10.0828 11.547 11.1038H0C0.0322543 10.0828 0.203114 9.07076 0.508008 8.09465H12.055ZM14.1531 4.25797C13.4011 5.1642 12.7946 6.17909 12.3548 7.26713H0.817893C1.26169 6.18101 1.86787 5.16669 2.61624 4.25797H14.1531ZM11.6842 1.1268e-05C13.7125 -0.00278726 15.7066 0.515742 17.4704 1.50459C16.5388 2.02924 15.6842 2.6772 14.9304 3.43045H3.37825C4.4653 2.34633 5.75877 1.48512 7.18423 0.89639C8.6097 0.307658 10.139 0.00302196 11.6842 1.1268e-05Z" fill="white"/>
<path fill-rule="evenodd" clip-rule="evenodd" d="M138.961 15.3016L137.122 9.42369V15.3016H135.191V7.60816H138.051L139.443 12.1971L139.585 13.1149L139.748 12.2122L141.12 7.60816H143.98V15.3016H142.049V9.42369L140.231 15.3016H138.961ZM129.887 15.5122C129.33 15.5005 128.777 15.4179 128.242 15.2665C127.588 15.0589 127.019 14.6514 126.616 14.1029C126.062 13.3328 125.796 12.3969 125.864 11.4549C125.796 10.5081 126.062 9.56721 126.616 8.79177C127.018 8.2456 127.588 7.84267 128.242 7.64327C128.777 7.48942 129.33 7.40678 129.887 7.39752C130.431 7.40696 130.971 7.48964 131.493 7.64327C132.144 7.84682 132.713 8.24891 133.118 8.79177C133.673 9.56721 133.938 10.5081 133.87 11.4549C133.932 12.3993 133.659 13.3355 133.098 14.1029C132.692 14.6482 132.124 15.0549 131.472 15.2665C130.951 15.4177 130.411 15.5003 129.867 15.5122M128.043 11.4549C128.032 11.9181 128.11 12.3793 128.272 12.814C128.397 13.1248 128.618 13.3894 128.902 13.5713C129.202 13.7155 129.533 13.7877 129.867 13.782C130.259 13.8044 130.645 13.685 130.954 13.4459C131.222 13.2222 131.411 12.92 131.493 12.5833C131.596 12.2161 131.644 11.8359 131.635 11.4549C131.643 11.0789 131.595 10.7038 131.493 10.3415C131.405 10.0113 131.217 9.71546 130.954 9.4939C130.646 9.25234 130.26 9.12779 129.867 9.14283C129.531 9.14118 129.2 9.22036 128.902 9.37354C128.614 9.54201 128.392 9.80186 128.272 10.1108C128.109 10.5401 128.031 10.9965 128.043 11.4549ZM120.301 10.6073H120.398L123.167 7.59813H125.6L122.491 10.7377L125.849 15.2915H123.309L121.129 12.1319L120.342 12.9093V15.2915H118.31V7.60816H120.342L120.301 10.6073ZM112.26 10.6073H115.978V12.147H112.27V13.5563H116.649V15.2865H110.238V7.60816H116.568V9.35347H112.27L112.26 10.6073ZM100.174 15.2865V13.5713C100.357 13.6028 100.542 13.6212 100.728 13.6265C100.988 13.6401 101.248 13.5847 101.48 13.466C101.591 13.3812 101.683 13.2746 101.75 13.1529C101.818 13.0312 101.859 12.897 101.871 12.7588C101.984 12.2078 102.033 11.6458 102.018 11.0837V7.60816H108.038V15.3016H105.965V9.35347H103.933V11.9664C103.952 12.58 103.873 13.1926 103.7 13.782C103.572 14.2546 103.272 14.6639 102.856 14.9304C102.328 15.2391 101.722 15.3923 101.109 15.3718C100.79 15.3887 100.471 15.3651 100.159 15.3016M94.9924 10.6223H98.7313V12.162H94.9924V13.5713H99.3714V15.3016H92.9654V7.60816H99.2901V9.35347H95.0178L94.9924 10.6223ZM87.0929 9.35347H84.8373V7.60816H91.4668V9.35347H89.1808V15.3016H87.1233L87.0929 9.35347ZM78.7666 10.6073H78.8377L81.6064 7.59813H84.0397L80.9256 10.7377L83.6079 14.3738H84.3953V16.6858H82.8408V15.3016H81.7893L79.6048 12.142L78.8225 12.9193V15.3016H76.7651V7.60816H78.8225L78.7666 10.6073ZM70.1305 13.9625L69.7037 15.3016H67.5549L70.4708 7.60816H72.5029L75.3985 15.3016H73.2547L72.8229 13.9625H70.1305ZM70.5775 12.5833H72.4013L71.6291 10.1659L71.558 9.42369H71.4665L71.3751 10.1659L70.5775 12.5833ZM59.2083 12.5833H61.2403C61.2403 13.1851 61.4181 13.5563 61.7941 13.7318C62.1503 13.9025 62.541 13.9917 62.9371 13.9926C63.2858 14.0034 63.6327 13.9384 63.9531 13.802C64.1067 13.7315 64.234 13.6152 64.317 13.4694C64.3999 13.3236 64.4343 13.1557 64.4154 12.9895C64.4361 12.8445 64.4152 12.6966 64.3551 12.5628C64.2949 12.4289 64.1979 12.3144 64.075 12.2322C63.8181 12.1045 63.5346 12.0375 63.247 12.0366H62.1243V10.7327H63.0184C63.278 10.7357 63.535 10.6808 63.7702 10.5722C63.8913 10.501 63.9892 10.397 64.0522 10.2726C64.1152 10.1481 64.1408 10.0084 64.1258 9.87005C64.1482 9.70732 64.1168 9.5418 64.0363 9.39811C63.9557 9.25443 63.8303 9.14027 63.6788 9.07262C63.3953 8.95673 63.0915 8.89708 62.7847 8.89709C62.4366 8.88648 62.0934 8.97907 61.7991 9.1629C61.6591 9.30004 61.5515 9.46598 61.4839 9.64889C61.4163 9.8318 61.3903 10.0272 61.408 10.2211H59.4064C59.3875 9.67889 59.5174 9.14169 59.7823 8.66638C60.043 8.24049 60.4397 7.91231 60.9101 7.73354C61.4984 7.51959 62.1224 7.41749 62.7491 7.43263H63.0184C63.7001 7.40684 64.3803 7.51421 65.0199 7.74859C65.4334 7.90523 65.7881 8.18362 66.0359 8.54602C66.2132 8.85127 66.3061 9.19719 66.3052 9.54907C66.3225 9.76138 66.2948 9.97492 66.224 10.1761C66.1531 10.3773 66.0407 10.5617 65.8937 10.7176C65.6341 10.9709 65.306 11.1451 64.9488 11.2192V11.2543C65.3969 11.3203 65.8146 11.5177 66.1477 11.821C66.3244 11.9995 66.461 12.2129 66.5485 12.4471C66.636 12.6813 66.6726 12.931 66.6557 13.1801V13.2152C66.674 13.4843 66.6305 13.7539 66.5284 14.004C66.4264 14.2541 66.2685 14.4782 66.0664 14.6596C65.6818 15.0087 65.2041 15.2419 64.6897 15.3317C64.1547 15.4389 63.61 15.4927 63.0641 15.4922C62.4443 15.497 61.8264 15.4245 61.2251 15.2765C60.6882 15.1431 60.2101 14.8402 59.8636 14.4139C59.4615 13.8839 59.2424 13.2405 59.2388 12.5783M53.1427 13.9575L52.7109 15.2966H50.5772L53.4881 7.60315H55.5202L58.4209 15.3016H56.2771L55.8504 13.9625L53.1427 13.9575ZM53.5846 12.5783H55.4084L54.6057 10.1609L54.5346 9.41867H54.4432L54.3568 10.1659L53.5846 12.5783ZM44.7656 10.6073H44.8571L47.6105 7.59813H50.0387L46.9297 10.7377L49.612 14.3738H50.3994V16.6858H48.8449V15.3016H47.7527L45.5733 12.142L44.7859 12.9193V15.3016H42.7539V7.60816H44.7859L44.7656 10.6073Z" fill="white"/>
</g>
<defs>
<clipPath id="clip0_1071_460">
<rect width="144" height="23" fill="white"/>
</clipPath>
</defs>
</svg>
